HIERARCHY
ROOT Hips
{
  OFFSET -35.4901 99.2528 17.4586
  CHANNELS 6 Xposition Yposition Zposition Zrotation Xrotation Yrotation
  JOINT LeftUpLeg
  {
    OFFSET 8.64259 1.95398 -2.38835
    CHANNELS 3 Zrotation Xrotation Yrotation
    JOINT LeftLeg
    {
      OFFSET 43.7702 0 0
      CHANNELS 3 Zrotation Xrotation Yrotation
      JOINT LeftFoot
      {
        OFFSET 40.6238 0 0
        CHANNELS 3 Zrotation Xrotation Yrotation
        JOINT LeftToeBase
        {
          OFFSET 12.7242 0 0
          CHANNELS 3 Zrotation Xrotation Yrotation
          End Site
          {
            OFFSET 0 0 0
          }
        }
      }
    }
  }
  JOINT RightUpLeg
  {
    OFFSET -8.2249 1.95398 -2.59336
    CHANNELS 3 Zrotation Xrotation Yrotation
    JOINT RightLeg
    {
      OFFSET 43.5653 0 0
      CHANNELS 3 Zrotation Xrotation Yrotation
      JOINT RightFoot
      {
        OFFSET 40.6238 0 0
        CHANNELS 3 Zrotation Xrotation Yrotation
        JOINT RightToeBase
        {
          OFFSET 12.7242 0 0
          CHANNELS 3 Zrotation Xrotation Yrotation
          End Site
          {
            OFFSET 0 0 0
          }
        }
      }
    }
  }
  JOINT Spine
  {
    OFFSET 0.165834 0.87714 6.61349
    CHANNELS 3 Zrotation Xrotation Yrotation
    JOINT Spine1
    {
      OFFSET 7.38963 1.71661e-005 0
      CHANNELS 3 Zrotation Xrotation Yrotation
      JOINT Spine2
      {
        OFFSET 11.9445 1.14441e-005 0
        CHANNELS 3 Zrotation Xrotation Yrotation
        JOINT Spine3
        {
          OFFSET 14.7254 4.19617e-005 0
          CHANNELS 3 Zrotation Xrotation Yrotation
          JOINT Spine4
          {
            OFFSET 10.9679 0 0
            CHANNELS 3 Zrotation Xrotation Yrotation
            JOINT RightShoulder
            {
              OFFSET 2.46616 -1.6653 3.69651
              CHANNELS 3 Zrotation Xrotation Yrotation
              JOINT RightArm
              {
                OFFSET 13.0012 0 0
                CHANNELS 3 Zrotation Xrotation Yrotation
                JOINT RightForeArm
                {
                  OFFSET 28.7848 1.52588e-005 0
                  CHANNELS 3 Zrotation Xrotation Yrotation
                  JOINT RightHand
                  {
                    OFFSET 26.5688 1.52588e-005 0
                    CHANNELS 3 Zrotation Xrotation Yrotation
                    End Site
                    {
                      OFFSET 0 0 0
                    }
                  }
                }
              }
            }
            JOINT LeftShoulder
            {
              OFFSET 2.38034 -1.29275 -3.7523
              CHANNELS 3 Zrotation Xrotation Yrotation
              JOINT LeftArm
              {
                OFFSET 16.3182 6.10351e-005 0
                CHANNELS 3 Zrotation Xrotation Yrotation
                JOINT LeftForeArm
                {
                  OFFSET 27.0901 0 0
                  CHANNELS 3 Zrotation Xrotation Yrotation
                  JOINT LeftHand
                  {
                    OFFSET 24.5451 1.52588e-005 0
                    CHANNELS 3 Zrotation Xrotation Yrotation
                    End Site
                    {
                      OFFSET 0 0 0
                    }
                  }
                }
              }
            }
            JOINT Neck
            {
              OFFSET 5.0226 -0.0266342 0
              CHANNELS 3 Zrotation Xrotation Yrotation
              JOINT Head
              {
                OFFSET 6.69364 2.86102e-005 0
                CHANNELS 3 Zrotation Xrotation Yrotation
                End Site
                {
                  OFFSET 0 0 0
                }
              }
            }
          }
        }
      }
    }
  }
}
MOTION
Frames:	7
Frame Time:	0.0416667
36.7721 31.3274 34.0649 -3.04264 -15.2831 -1.06997 -176.376 5.72195 91.9589 -27.091 28.306 1.64031 86.2339 13.2375 4.61916 40.1495 17.7756 -37.7435 172.723 -3.58534 90.018 -8.79734 -20.3169 -1.86725 97.4126 -17.3377 1.28192 42.046 -1.28095 2.2705 0.827355 7.58301 -90.18 11.7127 1.56113 -0.523731 0.0425919 1.53656 -0.591948 -22.5001 1.64633 -0.0302175 -2.48742 1.64633 -0.0302131 96.2177 -10.2606 -99.89 5.42207 -9.79722 -14.5083 -34.9849 -8.03103 -73.9995 -63.3991 -9.57408 10.0047 -83.2484 -27.7846 85.9777 16.0714 27.6296 -40.613 44.2301 56.3495 -62.8352 -23.406 17.8646 -85.1331 24.9881 -0.621648 -1.18535 0.706347 -0.134456 1.69447 
36.8169 27.0877 34.8304 -1.87211 -14.9762 -1.11079 -176.096 3.75641 92.1488 -28.3388 32.7906 2.37778 87.62 14.4856 5.425 39.2743 17.5029 -36.5036 174.087 -6.15122 89.9925 -9.32961 -18.6097 -3.86645 100.84 -19.885 -0.379671 39.115 -2.48998 7.15823 0.757237 7.37331 -90.1585 12.131 1.43035 -0.474318 0.460734 1.40809 -0.536834 -22.0807 1.50675 -0.0224056 -2.06806 1.50676 -0.0224267 96.7438 -10.9227 -98.097 7.39689 -12.9364 -9.96224 -35.4933 -1.07803 -80.3429 -78.2146 -12.5441 10.258 -82.9763 -27.9425 86.5531 13.4845 30.3908 -34.6629 53.0933 52.1083 -70.7303 -24.1817 18.49 -85.0243 31.7002 -1.21345 -1.86776 -0.923119 -0.353936 2.80221 
36.857 23.6625 35.8484 -3.65087 -15.2255 -1.16656 -174.797 2.35618 93.1671 -30.6597 35.2701 1.30578 86.7657 14.9274 7.19701 32.9898 21.8497 -38.9978 174.312 -8.51357 89.8321 -9.61233 -18.7548 -4.26302 101.149 -19.2166 1.58944 40.5941 -2.39264 6.85982 0.862807 7.20521 -90.2644 12.4692 1.58853 -0.710999 0.798968 1.5557 -0.780255 -21.7437 1.72875 -0.200576 -1.73109 1.72875 -0.200587 96.5664 -10.8774 -98.6293 8.02219 -16.8729 -5.06055 -37.7492 2.79819 -84.103 -74.9696 -12.5728 11.3159 -82.9925 -29.9599 86.8456 13.8681 35.9419 -27.0125 62.4275 45.0468 -78.8871 -23.3986 18.6557 -87.4098 37.0665 -0.766106 -1.79592 -3.62456 0.0700994 2.4134 
36.9405 20.8454 36.8756 -3.49142 -15.4866 -1.20687 -174.637 -0.0265607 93.0817 -30.4764 36.0037 1.59342 86.8047 15.3031 8.77573 17.3503 30.3757 -38.4622 174.312 -10.6779 89.2892 -9.92168 -20.0646 -4.89167 101.055 -19.2351 1.43511 39.1309 -2.07515 5.63587 0.78286 7.13689 -90.2524 12.605 1.43478 -0.671887 0.934611 1.40382 -0.734398 -21.6066 1.57037 -0.209526 -1.59405 1.57037 -0.209521 96.9958 -10.1799 -97.6345 9.29568 -22.6802 -2.40715 -47.1283 6.10719 -84.5536 -55.1535 -8.76123 10.555 -82.9309 -29.7406 86.9334 11.3322 40.1202 -20.2296 57.1818 37.1537 -75.1256 -27.0781 19.4053 -80.6914 42.2353 -1.02926 -1.83416 -5.8356 -0.0679209 1.08228 
36.8847 18.9074 37.8387 -3.02672 -14.6983 -0.495938 -174.437 -1.09016 93.504 -29.2628 34.074 1.86384 87.8641 14.8384 5.93031 24.0613 24.1251 -34.6702 174.102 -11.3006 89.4546 -9.9005 -21.3885 -4.47261 99.1498 -18.4327 0.942916 37.2307 -2.50425 7.0567 0.768692 6.97445 -90.2789 12.9304 1.39246 -0.726171 1.25993 1.35916 -0.786757 -21.2809 1.54631 -0.274016 -1.26822 1.54632 -0.274027 96.5729 -10.898 -98.5939 12.5167 -25.0346 3.47988 -44.5291 12.9342 -85.2481 -74.3807 -11.886 9.90558 -82.7028 -29.8981 87.401 7.13228 40.2103 -15.0739 63.7922 35.6076 -79.7822 -27.155 19.7709 -81.4299 45.9507 -1.77681 -3.06794 -7.13931 -0.0955184 2.18564 
36.7739 17.5531 38.6997 -2.78556 -14.1727 -0.50991 -174.558 -1.25719 93.3411 -29.6299 34.8511 2.29649 86.4524 14.3091 6.69249 28.7048 20.3357 -33.1973 173.777 -11.5297 88.9703 -10.0568 -23.2084 -4.51105 98.9893 -18.5203 0.388565 35.3095 -2.49914 6.99708 0.745812 6.84859 -90.243 13.1814 1.36313 -0.65598 1.51094 1.33295 -0.715333 -21.0297 1.49726 -0.215871 -1.01708 1.49725 -0.215891 96.2504 -11.9198 -99.1295 14.89 -27.5602 7.67591 -46.3624 14.0862 -86.1072 -77.4286 -13.8106 12.0621 -83.059 -31.0386 86.8811 3.78965 39.8132 -9.19539 66.4712 32.971 -81.6088 -28.3369 20.2932 -80.25 47.0256 -1.82228 -2.31 -7.87122 -0.493347 1.3659 
36.587 16.493 39.282 -2.96326 -13.6334 -0.346239 -174.491 -1.86653 93.5405 -28.5026 31.3092 1.87933 87.2768 13.583 2.89331 11.4279 30.4136 -34.6548 173.924 -11.7693 89.2356 -10.0958 -23.6483 -4.60222 97.4556 -17.8974 -0.083637 34.2989 -3.63421 10.5592 0.755187 6.77454 -90.2213 13.3294 1.3916 -0.618871 1.65903 1.36301 -0.679533 -20.8819 1.51324 -0.171935 -0.869273 1.51324 -0.171942 97.0667 -10.2533 -97.3961 19.3908 -30.7314 8.10343 -50.8891 13.7612 -85.8216 -72.2438 -13.8902 13.7887 -82.7177 -29.8726 87.3688 -1.31704 38.5175 -5.06566 68.4558 32.0063 -82.6766 -28.6751 19.9646 -78.5877 47.6224 -2.09298 -2.48585 -7.48302 -0.640078 1.57218 
